<?xml version="1.0" encoding="UTF-8"?>
<svg xmlns="http://www.w3.org/2000/svg" viewBox="0 0 500 500" fill="none">
  <rect width="500" height="500" fill="#0a0a0a"/>
  <rect y="380" width="500" height="8" fill="#dc2626"/>
  <rect y="392" width="500" height="4" fill="#ffffff" opacity="0.3"/>
  <g transform="translate(150, 80) scale(2)">
    <circle cx="50" cy="50" r="48" fill="#1a1a1a" stroke="#dc2626" stroke-width="2.5"/>
    <path d="M28 58 C28 38, 38 26, 50 26 C62 26, 72 38, 72 58 L72 64 C72 70, 66 74, 50 74 C34 74, 28 70, 28 64 Z" fill="#0a0a0a" stroke="#dc2626" stroke-width="2"/>
    <path d="M28 58 L72 58" stroke="#ffffff" stroke-width="2" stroke-linecap="round"/>
    <path d="M34 44 C40 36, 60 36, 66 44" stroke="#dc2626" stroke-width="2.5" stroke-linecap="round" fill="none"/>
    <ellipse cx="50" cy="52" rx="6" ry="4" fill="#dc2626"/>
  </g>
  <text x="250" y="310" text-anchor="middle" font-family="Arial Black, Helvetica, sans-serif" font-weight="900" font-size="42" fill="#ffffff" letter-spacing="4">ASFALTO Y GAS</text>
  <rect x="140" y="325" width="220" height="4" fill="#dc2626"/>
  <text x="250" y="360" text-anchor="middle" font-family="Arial, Helvetica, sans-serif" font-weight="700" font-size="13" fill="#ffffff" opacity="0.8" letter-spacing="4">EQUIPAMIENTO PARA MOTORISTA</text>
</svg>
