<svg xmlns="http://www.w3.org/2000/svg" viewBox="0 0 200 200" fill="none">
  <rect width="200" height="200" fill="#ffffff"/>
  <path d="M62 78c0-28 17-46 38-46s38 18 38 46v34c0 10-8 18-18 18h-6l-8 14-8-14h-6c-10 0-18-8-18-18V78z" fill="#1a1a1a"/>
  <rect x="88" y="96" width="24" height="16" rx="4" fill="#cc0000"/>
  <circle cx="76" cy="88" r="6" fill="#333"/>
  <circle cx="124" cy="88" r="6" fill="#333"/>
  <path d="M118 52c12 4 20 14 22 26" stroke="#cc0000" stroke-width="3" stroke-linecap="round"/>
  <path d="M70 130h60" stroke="#555" stroke-width="4" stroke-linecap="round"/>
  <rect x="92" y="134" width="16" height="22" rx="3" fill="#333"/>
</svg>
